<?xml version="1.0" encoding="UTF-8" standalone="no"?>
<!-- Created with Inkscape (http://www.inkscape.org/) -->

<svg
   width="100.00014mm"
   height="99.999939mm"
   viewBox="0 0 100.00014 99.999939"
   version="1.1"
   id="svg1"
   xmlns="http://www.w3.org/2000/svg"
   xmlns:svg="http://www.w3.org/2000/svg">
  <defs
     id="defs1">
    <clipPath
       clipPathUnits="userSpaceOnUse"
       id="clipPath71">
      <path
         d="m 0,0.0406 h 283.465 v 283.465 H 0 Z"
         transform="translate(-2.5000002e-5)"
         clip-rule="evenodd"
         id="path71" />
    </clipPath>
    <clipPath
       clipPathUnits="userSpaceOnUse"
       id="clipPath73">
      <path
         d="m 0,0.0406 h 283.465 v 283.465 H 0 Z"
         transform="translate(-2.5000002e-5)"
         clip-rule="evenodd"
         id="path73" />
    </clipPath>
  </defs>
  <g
     id="layer1"
     transform="translate(-70.908319,-134.40833)">
    <path
       id="path70"
       d="m 133.373,264.246 -5.057,-0.809 -4.784,-1.828 -4.225,-2.703 -3.465,-3.342 -2.621,-3.71 -25.3467,-43.901 v 50.693 l -0.415,4.523 -1.3304,4.627 -2.3072,4.453 -3.2289,3.975 -3.975,3.229 -4.4527,2.307 -4.6271,1.33 -4.5238,0.415 H 24.8594 l -4.5231,-0.415 -4.6271,-1.33 -4.4526,-2.307 -3.975,-3.229 -3.229,-3.975 L 1.7455,267.796 0.415,263.169 0,258.646 V 24.9001 l 0.415,-4.5232 1.3305,-4.6278 2.3071,-4.4526 3.229,-3.975 3.975,-3.229 4.4526,-2.3064 4.6271,-1.3305 4.5231,-0.415 H 258.605 l 4.524,0.415 4.627,1.3305 4.453,2.3064 3.975,3.229 3.229,3.975 2.307,4.4526 1.33,4.6278 0.415,4.5232 v 38.1547 l -0.415,4.5231 -1.33,4.6278 -2.307,4.4527 -3.229,3.975 -3.975,3.229 -4.453,2.3064 -4.627,1.3304 -4.524,0.415 h -50.693 l 43.901,25.3468 3.711,2.621 3.342,3.466 2.703,4.224 1.828,4.784 0.808,5.057 -0.228,5.01 -1.162,4.672 -1.902,4.125 -19.077,33.043 -2.622,3.71 -3.465,3.342 -4.224,2.703 -4.785,1.827 -5.057,0.81 -5.009,-0.229 -4.673,-1.162 -4.125,-1.902 -43.901,-25.346 25.347,43.901 1.902,4.125 1.161,4.673 0.229,5.009 -0.809,5.057 -1.828,4.784 -2.703,4.224 -3.342,3.466 -3.71,2.621 -33.042,19.078 -4.125,1.902 -4.673,1.161 z M 83.2992,10.5284 l 2.1249,3.6105 1.4892,3.9167 15.9847,9.2285 V 10.5284 Z m 30.0868,22.8114 46.63,26.9217 V 10.5284 h -46.63 z m 150.509,43.0773 2.575,-1.3333 2.298,-1.8665 1.866,-2.2986 1.333,-2.5741 0.77,-2.6751 0.24,-2.6147 V 24.9001 l -0.24,-2.6147 -0.77,-2.6751 -1.333,-2.5741 -1.866,-2.2986 -2.298,-1.8665 -2.575,-1.3333 -2.675,-0.7695 -2.615,-0.2399 h -30.983 v 66.8981 h 30.983 l 2.615,-0.2399 z M 10.4885,102.938 H 77.3859 V 24.9001 L 77.146,22.2854 76.3772,19.6103 75.0431,17.0362 73.1766,14.7376 70.8788,12.8711 68.304,11.5378 65.6296,10.7683 63.0142,10.5284 H 24.8594 l -2.6146,0.2399 -2.6752,0.7695 -2.574,1.3333 -2.2979,1.8665 -1.8672,2.2986 -1.3333,2.5741 -0.7688,2.6751 -0.2399,2.6147 z M 170.504,10.5284 v 55.7881 l 19.243,11.11 h 27.387 V 10.5284 Z M 111.723,44.4903 87.8743,30.7209 v 1.4835 l 15.4707,26.7964 z m 9.083,5.2443 -11.406,19.7547 26.923,46.6297 24.865,-43.0697 z M 102.385,78.3142 87.8743,53.1807 V 86.692 Z m 74.821,81.2288 33.449,-57.935 -40.383,-23.3145 -27.894,48.3135 11.109,19.242 z M 130.944,127.78 107.629,87.3974 87.8743,98.8028 v 53.8442 z m 90.158,54.402 2.924,-0.467 2.766,-1.057 2.442,-1.563 2.003,-1.932 1.516,-2.145 19.077,-33.042 1.1,-2.385 0.671,-2.701 0.132,-2.896 -0.467,-2.923 -1.057,-2.766 -1.563,-2.442 -1.932,-2.004 -2.145,-1.515 -26.831,-15.492 -33.45,57.936 26.832,15.491 2.385,1.1 2.702,0.671 z M 10.4885,160.057 H 77.3859 V 113.426 H 10.4885 Z m 77.3858,26.919 13.6937,23.719 57.935,-33.449 -23.315,-40.382 -48.3137,27.894 z M 77.3859,170.544 H 10.4885 v 46.63 h 66.8974 z m 50.8781,81.705 2.766,1.057 2.923,0.468 2.896,-0.133 2.702,-0.671 2.385,-1.1 33.042,-19.077 2.145,-1.515 1.932,-2.004 1.563,-2.442 1.056,-2.765 0.468,-2.924 -0.132,-2.896 -0.672,-2.701 -1.1,-2.385 -15.491,-26.832 -57.935,33.449 15.491,26.832 1.516,2.145 2.004,1.931 z m -111.2684,18.426 2.574,1.333 2.6752,0.77 2.6146,0.239 h 38.1548 l 2.6154,-0.239 2.6744,-0.77 2.5748,-1.333 2.2978,-1.868 1.8665,-2.297 1.3341,-2.574 0.7688,-2.676 0.2399,-2.614 V 227.663 H 10.4885 v 30.983 l 0.2399,2.614 0.7688,2.676 1.3333,2.574 1.8672,2.297 z"
       style="fill:#000000;fill-opacity:1;fill-rule:nonzero;stroke:none"
       transform="matrix(0.35277776,0,0,-0.35277776,70.908319,234.42259)"
       clip-path="url(#clipPath71)" />
    <path
       id="path72"
       d="m 43.987,58.1771 c 7.8184,0 14.1659,-6.3476 14.1659,-14.1659 0,-7.8184 -6.3475,-14.166 -14.1659,-14.166 -7.8184,0 -14.1659,6.3476 -14.1659,14.166 0,7.8183 6.3475,14.1659 14.1659,14.1659 z m 0,-10.5924 c 1.9723,0 3.5735,-1.6013 3.5735,-3.5735 0,-1.9723 -1.6012,-3.5736 -3.5735,-3.5736 -1.9723,0 -3.5735,1.6013 -3.5735,3.5736 0,1.9722 1.6012,3.5735 3.5735,3.5735 z"
       style="fill:#000000;fill-opacity:1;fill-rule:evenodd;stroke:none"
       transform="matrix(0.35277776,0,0,-0.35277776,70.908319,234.42259)"
       clip-path="url(#clipPath73)" />
  </g>
</svg>
