<?xml version="1.0" encoding="UTF-8" standalone="no"?>
<!-- Created with Inkscape (http://www.inkscape.org/) -->

<svg
   width="99.999893mm"
   height="100.00001mm"
   viewBox="0 0 99.999893 100.00001"
   version="1.1"
   id="svg1"
   xmlns="http://www.w3.org/2000/svg"
   xmlns:svg="http://www.w3.org/2000/svg">
  <defs
     id="defs1">
    <clipPath
       clipPathUnits="userSpaceOnUse"
       id="clipPath67">
      <path
         d="m 0.1927,0.0354 h 283.465 v 283.465 H 0.1927 Z"
         transform="translate(2.5e-5)"
         clip-rule="evenodd"
         id="path67" />
    </clipPath>
  </defs>
  <g
     id="layer1"
     transform="translate(-119.59165,-90.487505)">
    <path
       id="path66"
       d="m 236.472,271.006 -19.853,-7.685 -19.418,-8.657 -15.119,-27.271 c 0,0 -2.885,10.761 -2.885,10.761 l -1.113,2.09 -1.919,1.387 -2.334,0.403 -2.273,-0.665 -21.422,-12.89 -20.663,-14.152 -19.795,-15.342 -18.8253,-16.451 -7.9849,-50.41 -5.6568,22.684 -0.5434,1.348 -0.9365,1.189 -1.2371,0.872 -1.3745,0.471 -1.4514,0.077 -1.4735,-0.346 -1.3132,-0.753 c 0,0 -1.0077,-1.047 -1.0077,-1.047 l -4.9739,-7.224 -4.6498,-7.528 -4.3001,-7.812 -3.9262,-8.069 -3.5303,-8.303 -3.115,-8.504 -2.6835,-8.675 -2.2384,-8.812 -1.784,-8.9157 -1.3239,-8.9834 -0.8603,-9.0161 -0.3989,-9.0119 0.0592,-8.9741 0.5077,-8.9029 0.9451,-8.7975 1.3688,-8.6622 -7.9336,-3.173 -8.1053,-2.745 L 12.69,12.2053 4.349,10.3496 2.5237,9.6198 1.0003,8.1337 0.1927,6.1656 l 0.0071,-1.966 0.73,-1.825 1.4863,-1.5231 1.9685,-0.8068 1.9663,0.0064 9.2925,2.0785 9.1749,2.6026 9.014,3.1145 8.8097,3.6109 8.9335,-4.293 9.5054,-3.3752 9.9327,-2.3533 10.192,-1.2625 10.2681,-0.1382 10.1613,0.9784 9.877,2.0479 9.435,3.0362 8.622,3.5219 8.515,3.9548 8.375,4.3856 8.204,4.8071 8.001,5.2201 7.766,5.6189 7.503,6.002 c 0,0 7.213,6.3658 7.213,6.3658 l 6.896,6.7076 6.554,7.0252 6.193,7.3164 5.813,7.5799 5.418,7.8135 5.009,8.0171 4.59,8.1887 4.166,8.3285 0.5,2.335 -0.587,2.315 -1.552,1.814 -2.196,0.938 -10.737,1.894 25.132,18.256 4.134,16.235 7.504,32.002 8.99,31.654 10.451,31.203 11.872,30.652 0.361,1.369 -0.027,1.47 -0.435,1.406 -0.771,1.186 -1.06,0.938 -1.326,0.638 -1.451,0.244 -1.407,-0.154 -20.496,-5.657 c 0,0 -20.212,-6.683 -20.212,-6.683 z M 93.8624,10.6829 85.74,10.4671 l -8.1038,0.5782 -7.9721,1.3586 -7.7286,2.1035 -7.3881,2.7934 13.1254,7.8804 12.4097,9.0723 11.5351,10.1612 10.5244,11.1174 64.126,-11.8829 -11.43,-8.292 -12.054,-7.431 -12.58,-6.5026 -12.996,-5.5234 -7.506,-2.4602 -7.815,-1.756 z M 80.7028,48.571 70.0864,39.7578 58.7443,31.8995 46.8089,25.0793 45.0285,39.8311 44.5691,54.867 l 0.9095,15.1399 2.2925,15.0565 3.6563,14.7853 4.9645,14.3313 6.1889,13.711 7.3005,12.942 20.5982,-82.5994 z M 199.294,77.0043 188.487,64.1722 176.629,52.399 l -67.015,12.4184 39.26,52.4716 68.364,-12.053 -8.325,-14.4875 z m -87.413,110.1517 11.585,9.46 18.898,-70.514 -41.153,-55 -2.3598,-3.0754 -9.4869,38.0444 11.2807,71.212 z m 119.388,-46.278 -30.421,-22.099 -44.932,7.921 36.395,48.643 45.129,-7.835 -3.23,-14.613 z m -80.907,-4.086 -17.881,66.722 18.821,13.202 19.524,12.141 12.77,-47.648 z m 95.063,61.943 -5.603,-21.279 -40.651,7.056 18.974,25.359 10.93,13.823 11.671,13.237 12.362,12.595 12.999,11.899 -7.53,-20.676 -6.897,-20.907 z m 10.556,67.759 -12.488,-11.689 -11.899,-12.317 -11.263,-12.9 -10.588,-13.433 -18.149,-24.256 -5.603,20.906 18.745,33.812 12.554,5.601 12.739,5.186 12.904,4.761 z"
       style="fill:#000000;fill-opacity:1;fill-rule:nonzero;stroke:none"
       transform="matrix(0.35277776,0,0,-0.35277776,119.52366,190.5)"
       clip-path="url(#clipPath67)" />
  </g>
</svg>
