<?xml version="1.0" encoding="UTF-8" standalone="no"?>
<!-- Created with Inkscape (http://www.inkscape.org/) -->

<svg
   width="99.999969mm"
   height="100.00001mm"
   viewBox="0 0 99.999969 100.00001"
   version="1.1"
   id="svg1"
   xmlns="http://www.w3.org/2000/svg"
   xmlns:svg="http://www.w3.org/2000/svg">
  <defs
     id="defs1">
    <clipPath
       clipPathUnits="userSpaceOnUse"
       id="clipPath69">
      <path
         d="m 0.2205,0.0354 h 283.465 v 283.465 H 0.2205 Z"
         clip-rule="evenodd"
         id="path69" />
    </clipPath>
  </defs>
  <g
     id="layer1"
     transform="translate(-186.26667,-125.14793)">
    <path
       id="path68"
       d="m 8.9827,226.054 -3.1094,-3.161 -2.4986,-3.663 -1.7846,-3.983 -1.04,-4.103 -0.3296,-4.034 v -56.884 l 0.4534,-11.884 1.4002,-12.085 2.394,-12.175 3.4198,-12.147 4.4576,-11.9903 5.4877,-11.7028 6.4864,-11.2844 7.4325,-10.7404 8.3059,-10.0813 9.0868,-9.3189 9.7616,-8.4717 10.3198,-7.5599 10.7525,-6.6039 11.0608,-5.6251 11.2435,-4.6434 11.309,-3.6789 1.431,-0.1986 1.431,0.1986 8.759,2.7649 c 0,0 8.595,3.2823 8.595,3.2823 l 8.386,3.7828 8.135,4.264 8.178,-5.5147 9.241,-4.3772 4.945,-1.6728 5.109,-1.2921 5.228,-0.8876 5.299,-0.4699 5.32,-0.0455 5.29,0.3773 5.209,0.7901 5.084,1.1867 9.622,3.4617 8.673,4.6961 7.884,5.9262 7.158,7.3022 3.198,4.1259 2.891,4.4057 2.548,4.6505 2.177,4.8549 1.782,5.0121 1.373,5.1225 0.956,5.1823 0.54,5.1923 c 0,0 -0.125,10.2244 -0.125,10.2244 l -1.603,9.7317 25.843,25.8432 1.105,1.625 0.431,2.083 -0.431,2.083 -1.105,1.625 c 0,0 -16.236,16.236 -16.236,16.236 l -1.625,1.105 -2.083,0.43 -2.083,-0.43 -1.625,-1.105 -18.953,-18.952 -5.78,5.334 -6.368,4.615 1.822,13.657 0.609,13.766 v 56.884 l -0.33,4.034 -1.04,4.103 -1.785,3.983 -2.499,3.663 -3.109,3.161 -3.561,2.524 -3.823,1.815 -3.894,1.105 -12.708,3.022 -12.55,4.029 -12.274,5.023 -11.88,5.983 -11.377,6.893 -10.771,7.737 -10.075,8.497 -9.307,9.166 -1.739,1.221 -2.082,0.431 -2.08,-0.431 -1.74,-1.221 -9.306,-9.166 -10.0766,-8.497 -10.771,-7.737 -11.3762,-6.893 -11.8808,-5.983 c 0,0 -12.2731,-5.023 -12.2731,-5.023 l -12.55,-4.029 -12.708,-3.022 -3.8938,-1.105 c 0,0 -3.8234,-1.815 -3.8234,-1.815 0,0 -3.5614,-2.524 -3.5614,-2.524 z M 183.225,10.8592 l -5.025,0.9859 -4.955,1.4508 -4.822,1.907 -4.626,2.3413 -4.374,2.7442 -4.071,3.1051 -3.729,3.4162 -3.354,3.6739 -2.962,3.8732 -4.716,8.1208 -3.304,8.79 -1.125,4.7445 -0.723,4.9224 -0.286,5.0485 0.172,5.1175 0.643,5.1233 1.114,5.0634 1.574,4.9402 2.012,4.7552 2.416,4.5146 2.778,4.2249 3.092,3.8979 3.351,3.541 7.265,5.951 8.152,4.663 4.504,1.868 4.744,1.497 4.938,1.087 5.079,0.647 5.161,0.182 5.176,-0.293 5.129,-0.766 5.015,-1.228 4.842,-1.665 c 0,0 4.614,-2.07 4.614,-2.07 l 4.34,-2.43 4.031,-2.745 7.033,-6.223 -37.368,-37.3665 -24.153,24.1525 -1.625,1.1048 c 0,0 -2.083,0.4314 -2.083,0.4314 l -2.082,-0.4314 -1.626,-1.1048 -16.235,-16.2353 -1.105,-1.6251 -0.431,-2.0829 0.431,-2.0829 1.105,-1.6252 44.096,-44.0972 1.625,-1.1041 2.083,-0.4314 2.083,0.4314 1.625,1.1041 48.877,48.8766 0.369,-9.3836 c 0,0 -0.425,-4.8577 -0.425,-4.8577 l -0.865,-4.899 -1.317,-4.8826 -1.774,-4.8029 c 0,0 -2.222,-4.6605 -2.222,-4.6605 l -2.651,-4.4555 -3.05,-4.1942 -3.406,-3.8796 -3.715,-3.5244 -3.967,-3.1365 -4.161,-2.7264 -4.296,-2.3057 -8.769,-3.3613 -9.204,-1.8601 c 0,0 -4.864,-0.3552 -4.864,-0.3552 l -4.974,0.0719 c 0,0 -5.029,0.5225 -5.029,0.5225 z m -99.2036,13.0846 -9.8991,6.1924 c 0,0 -9.494,7.0658 -9.494,7.0658 l -8.9757,7.8988 -8.3508,8.6704 -7.6304,9.3651 -6.8259,9.966 -5.9568,10.4614 -5.04,10.8415 -4.0938,11.1038 -3.1422,11.247 -2.2003,11.272 -1.2863,11.19 -0.4172,11.008 v 56.884 l 0.7916,4.703 1.0315,2.303 1.4443,2.118 1.7982,1.827 2.0587,1.46 4.4612,1.687 12.8504,3.032 12.6959,3.998 12.4346,4.952 12.0667,5.878 c 0,0 11.5961,6.757 11.5961,6.757 l 11.033,7.579 10.3849,8.325 9.667,8.993 9.668,-8.993 10.385,-8.325 11.033,-7.579 11.596,-6.757 c 0,0 12.066,-5.878 12.066,-5.878 l 12.435,-4.952 12.697,-3.998 12.849,-3.032 4.462,-1.687 2.059,-1.46 1.797,-1.827 1.445,-2.118 1.032,-2.303 0.791,-4.703 v -56.884 l -0.43,-11.17 -1.285,-11.103 -6.067,2.239 -6.255,1.639 0.961,9.175 0.321,9.22 v 53.925 l -0.284,1.699 -0.884,1.6 -1.38,1.199 -1.603,0.631 -11.391,2.793 -11.264,3.5 -11.07,4.198 -10.813,4.878 -10.493,5.531 -10.115,6.152 -9.684,6.733 c 0,0 -9.205,7.269 -9.205,7.269 l -1.524,0.893 -1.85,0.336 -1.848,-0.336 -1.525,-0.893 -9.205,-7.269 -9.6842,-6.733 -10.1154,-6.152 c 0,0 -10.4928,-5.531 -10.4928,-5.531 l -10.8123,-4.878 -11.0701,-4.198 -11.2636,-3.5 -11.3918,-2.793 -1.6031,-0.631 -1.3796,-1.199 -0.8848,-1.6 -0.2827,-1.699 c 0,0 0,-53.925 0,-53.925 l 0.3588,-9.752 1.1048,-9.902 1.8864,-9.971 2.6901,-9.948 3.5016,-9.83 4.3089,-9.614 5.0919,-9.2997 5.8393,-8.891 6.532,-8.3942 7.1591,-7.8204 7.7108,-7.1791 8.1742,-6.4857 8.5487,-5.7553 8.8291,-5.0015 9.0167,-4.2405 9.115,-3.4853 1.691,-0.2804 1.692,0.2804 9.047,3.4568 8.77,4.1074 3.607,-5.3674 4.11,-4.9915 -13.331,-6.2522 -13.895,-4.8712 -10.44,3.5115 c 0,0 -10.37,4.3972 -10.37,4.3972 0,0 -10.1916,5.2969 -10.1916,5.2969 z m -8.4882,34.4608 -6.9484,6.5989 c 0,0 -6.4487,7.1698 -6.4487,7.1698 l -5.8799,7.6795 -5.2542,8.1215 -4.5822,8.4839 -3.876,8.7638 -3.1521,8.956 -2.421,9.06 -1.6985,9.081 -0.9959,9.02 -0.3239,8.887 v 49.727 l 10.9319,2.893 10.8038,3.513 10.6238,4.123 10.3937,4.718 10.1126,5.292 9.7852,5.842 9.4156,6.357 c 0,0 9.004,6.84 9.004,6.84 l 9.034,-6.86 9.447,-6.376 9.82,-5.855 10.148,-5.304 10.431,-4.725 10.663,-4.126 10.842,-3.511 10.97,-2.888 v -49.66 l -0.299,-8.552 -0.895,-8.509 -8.135,-0.054 -8.259,-1.083 -8.189,-2.147 -7.913,-3.199 -7.439,-4.183 -6.789,-5.057 -6.003,-5.776 -5.12,-6.32 -4.312,-6.8967 -3.511,-7.5542 -2.574,-8.0646 -1.539,-8.3949 -0.452,-8.5231 0.631,-8.4418 1.662,-8.1629 2.593,-7.7093 -7.299,-3.4568 -7.513,-2.9677 -8.259,3.2944 -8.1596,3.9729 -7.9799,4.6541 -7.7179,5.3289 z M 271.024,111.862 194.96,35.7983 l -36.68,36.6804 8.819,8.8191 24.153,-24.1532 1.625,-1.104 2.083,-0.4314 2.083,0.4314 1.625,1.104 63.537,63.5364 z"
       style="fill:#000000;fill-opacity:1;fill-rule:nonzero;stroke:none"
       transform="matrix(0.35277776,0,0,-0.35277776,186.18888,225.16042)"
       clip-path="url(#clipPath69)" />
  </g>
</svg>
