<?xml version="1.0" encoding="UTF-8" standalone="no"?>
<!-- Created with Inkscape (http://www.inkscape.org/) -->

<svg
   width="70.999771mm"
   height="99.999901mm"
   viewBox="0 0 70.999771 99.999901"
   version="1.1"
   id="svg1"
   xmlns="http://www.w3.org/2000/svg"
   xmlns:svg="http://www.w3.org/2000/svg">
  <defs
     id="defs1">
    <clipPath
       clipPathUnits="userSpaceOnUse"
       id="clipPath31">
      <path
         d="m 0.3163,0.4107 h 283.465 v 283.465 H 0.3163 Z"
         clip-rule="evenodd"
         id="path31" />
    </clipPath>
    <clipPath
       clipPathUnits="userSpaceOnUse"
       id="clipPath33">
      <path
         d="m 0.3163,0.4107 h 283.465 v 283.465 H 0.3163 Z"
         clip-rule="evenodd"
         id="path33" />
    </clipPath>
    <clipPath
       clipPathUnits="userSpaceOnUse"
       id="clipPath35">
      <path
         d="m 0.3163,0.4107 h 283.465 v 283.465 H 0.3163 Z"
         clip-rule="evenodd"
         id="path35" />
    </clipPath>
    <clipPath
       clipPathUnits="userSpaceOnUse"
       id="clipPath37">
      <path
         d="m 0.3163,0.4107 h 283.465 v 283.465 H 0.3163 Z"
         clip-rule="evenodd"
         id="path37" />
    </clipPath>
    <clipPath
       clipPathUnits="userSpaceOnUse"
       id="clipPath39">
      <path
         d="m 0.3163,0.4107 h 283.465 v 283.465 H 0.3163 Z"
         clip-rule="evenodd"
         id="path39" />
    </clipPath>
    <clipPath
       clipPathUnits="userSpaceOnUse"
       id="clipPath41">
      <path
         d="m 0.3163,0.4107 h 283.465 v 283.465 H 0.3163 Z"
         clip-rule="evenodd"
         id="path41" />
    </clipPath>
    <clipPath
       clipPathUnits="userSpaceOnUse"
       id="clipPath43">
      <path
         d="m 0.3163,0.4107 h 283.465 v 283.465 H 0.3163 Z"
         clip-rule="evenodd"
         id="path43" />
    </clipPath>
    <clipPath
       clipPathUnits="userSpaceOnUse"
       id="clipPath45">
      <path
         d="m 0.3163,0.4107 h 283.465 v 283.465 H 0.3163 Z"
         clip-rule="evenodd"
         id="path45" />
    </clipPath>
    <clipPath
       clipPathUnits="userSpaceOnUse"
       id="clipPath47">
      <path
         d="m 0.3163,0.4107 h 283.465 v 283.465 H 0.3163 Z"
         clip-rule="evenodd"
         id="path47" />
    </clipPath>
    <clipPath
       clipPathUnits="userSpaceOnUse"
       id="clipPath49">
      <path
         d="m 0.3163,0.4107 h 283.465 v 283.465 H 0.3163 Z"
         clip-rule="evenodd"
         id="path49" />
    </clipPath>
    <clipPath
       clipPathUnits="userSpaceOnUse"
       id="clipPath51">
      <path
         d="m 0.3163,0.4107 h 283.465 v 283.465 H 0.3163 Z"
         clip-rule="evenodd"
         id="path51" />
    </clipPath>
    <clipPath
       clipPathUnits="userSpaceOnUse"
       id="clipPath53">
      <path
         d="m 0.3163,0.4107 h 283.465 v 283.465 H 0.3163 Z"
         clip-rule="evenodd"
         id="path53" />
    </clipPath>
    <clipPath
       clipPathUnits="userSpaceOnUse"
       id="clipPath55">
      <path
         d="m 0.3163,0.4107 h 283.465 v 283.465 H 0.3163 Z"
         clip-rule="evenodd"
         id="path55" />
    </clipPath>
    <clipPath
       clipPathUnits="userSpaceOnUse"
       id="clipPath57">
      <path
         d="m 0.3163,0.4107 h 283.465 v 283.465 H 0.3163 Z"
         clip-rule="evenodd"
         id="path57" />
    </clipPath>
    <clipPath
       clipPathUnits="userSpaceOnUse"
       id="clipPath59">
      <path
         d="m 0.3163,0.4107 h 283.465 v 283.465 H 0.3163 Z"
         clip-rule="evenodd"
         id="path59" />
    </clipPath>
    <clipPath
       clipPathUnits="userSpaceOnUse"
       id="clipPath61">
      <path
         d="m 0.3163,0.4107 h 283.465 v 283.465 H 0.3163 Z"
         clip-rule="evenodd"
         id="path61" />
    </clipPath>
    <clipPath
       clipPathUnits="userSpaceOnUse"
       id="clipPath63">
      <path
         d="m 0.3163,0.4107 h 283.465 v 283.465 H 0.3163 Z"
         clip-rule="evenodd"
         id="path63" />
    </clipPath>
  </defs>
  <g
     id="layer1"
     transform="translate(-129.11665,-144.19792)">
    <path
       id="path30"
       d="m 96.4109,185.723 c 0,3.013 -2.4463,5.46 -5.4595,5.46 H 71.5398 c -3.0132,0 -5.4596,-2.447 -5.4596,-5.46 v -19.412 c 0,-3.013 2.4464,-5.459 5.4596,-5.459 h 19.4116 c 3.0132,0 5.4595,2.446 5.4595,5.459 z M 76.5687,171.34 h 9.3545 v 9.3545 h -9.3545 z"
       style="fill:#000000;fill-opacity:1;fill-rule:evenodd;stroke:none"
       transform="matrix(0.35277776,0,0,-0.35277776,114.50502,244.34271)"
       clip-path="url(#clipPath31)" />
    <path
       id="path32"
       d="m 96.4109,140.463 c 0,3.013 -2.4463,5.46 -5.4595,5.46 H 71.5398 c -3.0132,0 -5.4596,-2.447 -5.4596,-5.46 v -19.412 c 0,-3.013 2.4464,-5.459 5.4596,-5.459 h 19.4116 c 3.0132,0 5.4595,2.446 5.4595,5.459 z M 76.5687,126.08 h 9.3545 v 9.3545 h -9.3545 z"
       style="fill:#000000;fill-opacity:1;fill-rule:evenodd;stroke:none"
       transform="matrix(0.35277776,0,0,-0.35277776,114.50502,244.34271)"
       clip-path="url(#clipPath33)" />
    <path
       id="path34"
       d="m 136.947,140.463 c 0,3.013 -2.447,5.46 -5.46,5.46 h -19.411 c -3.014,0 -5.46,-2.447 -5.46,-5.46 v -19.412 c 0,-3.013 2.446,-5.459 5.46,-5.459 h 19.411 c 3.013,0 5.46,2.446 5.46,5.459 z M 117.105,126.08 h 9.3545 v 9.3545 h -9.3545 z"
       style="fill:#000000;fill-opacity:1;fill-rule:evenodd;stroke:none"
       transform="matrix(0.35277776,0,0,-0.35277776,114.50502,244.34271)"
       clip-path="url(#clipPath35)" />
    <path
       id="path36"
       d="m 177.525,140.463 c 0,3.013 -2.446,5.46 -5.459,5.46 h -19.412 c -3.013,0 -5.459,-2.447 -5.459,-5.46 v -19.412 c 0,-3.013 2.446,-5.459 5.459,-5.459 h 19.412 c 3.013,0 5.459,2.446 5.459,5.459 z M 157.683,126.08 h 9.3545 v 9.3545 h -9.3545 z"
       style="fill:#000000;fill-opacity:1;fill-rule:evenodd;stroke:none"
       transform="matrix(0.35277776,0,0,-0.35277776,114.50502,244.34271)"
       clip-path="url(#clipPath37)" />
    <path
       id="path38"
       d="m 218.081,140.463 c 0,3.013 -2.446,5.46 -5.459,5.46 H 193.21 c -3.013,0 -5.459,-2.447 -5.459,-5.46 v -19.412 c 0,-3.013 2.446,-5.459 5.459,-5.459 h 19.412 c 3.013,0 5.459,2.446 5.459,5.459 z M 198.239,126.08 h 9.3545 v 9.3545 h -9.3545 z"
       style="fill:#000000;fill-opacity:1;fill-rule:evenodd;stroke:none"
       transform="matrix(0.35277776,0,0,-0.35277776,114.50502,244.34271)"
       clip-path="url(#clipPath39)" />
    <path
       id="path40"
       d="m 96.4109,95.2032 c 0,3.0132 -2.4463,5.4598 -5.4595,5.4598 H 71.5398 c -3.0132,0 -5.4596,-2.4466 -5.4596,-5.4598 V 75.7916 c 0,-3.0132 2.4464,-5.4596 5.4596,-5.4596 h 19.4116 c 3.0132,0 5.4595,2.4464 5.4595,5.4596 z M 76.5687,80.8198 h 9.3545 v 9.3545 h -9.3545 z"
       style="fill:#000000;fill-opacity:1;fill-rule:evenodd;stroke:none"
       transform="matrix(0.35277776,0,0,-0.35277776,114.50502,244.34271)"
       clip-path="url(#clipPath41)" />
    <path
       id="path42"
       d="m 136.947,95.2032 c 0,3.0132 -2.447,5.4598 -5.46,5.4598 h -19.411 c -3.014,0 -5.46,-2.4466 -5.46,-5.4598 V 75.7916 c 0,-3.0132 2.446,-5.4596 5.46,-5.4596 h 19.411 c 3.013,0 5.46,2.4464 5.46,5.4596 z M 117.105,80.8198 h 9.3545 v 9.3545 h -9.3545 z"
       style="fill:#000000;fill-opacity:1;fill-rule:evenodd;stroke:none"
       transform="matrix(0.35277776,0,0,-0.35277776,114.50502,244.34271)"
       clip-path="url(#clipPath43)" />
    <path
       id="path44"
       d="m 177.525,95.2032 c 0,3.0132 -2.446,5.4598 -5.459,5.4598 h -19.412 c -3.013,0 -5.459,-2.4466 -5.459,-5.4598 V 75.7916 c 0,-3.0132 2.446,-5.4596 5.459,-5.4596 h 19.412 c 3.013,0 5.459,2.4464 5.459,5.4596 z M 157.683,80.8198 h 9.3545 v 9.3545 h -9.3545 z"
       style="fill:#000000;fill-opacity:1;fill-rule:evenodd;stroke:none"
       transform="matrix(0.35277776,0,0,-0.35277776,114.50502,244.34271)"
       clip-path="url(#clipPath45)" />
    <path
       id="path46"
       d="m 96.4109,49.9433 c 0,3.0132 -2.4463,5.4595 -5.4595,5.4595 H 71.5398 c -3.0132,0 -5.4596,-2.4463 -5.4596,-5.4595 V 30.5317 c 0,-3.0132 2.4464,-5.4596 5.4596,-5.4596 h 19.4116 c 3.0132,0 5.4595,2.4464 5.4595,5.4596 z M 76.5687,35.5599 h 9.3545 v 9.3545 h -9.3545 z"
       style="fill:#000000;fill-opacity:1;fill-rule:evenodd;stroke:none"
       transform="matrix(0.35277776,0,0,-0.35277776,114.50502,244.34271)"
       clip-path="url(#clipPath47)" />
    <path
       id="path48"
       d="m 136.947,49.9433 c 0,3.0132 -2.447,5.4595 -5.46,5.4595 h -19.411 c -3.014,0 -5.46,-2.4463 -5.46,-5.4595 V 30.5317 c 0,-3.0132 2.446,-5.4596 5.46,-5.4596 h 19.411 c 3.013,0 5.46,2.4464 5.46,5.4596 z M 117.105,35.5599 h 9.3545 v 9.3545 h -9.3545 z"
       style="fill:#000000;fill-opacity:1;fill-rule:evenodd;stroke:none"
       transform="matrix(0.35277776,0,0,-0.35277776,114.50502,244.34271)"
       clip-path="url(#clipPath49)" />
    <path
       id="path50"
       d="m 177.525,49.9433 c 0,3.0132 -2.446,5.4595 -5.459,5.4595 h -19.412 c -3.013,0 -5.459,-2.4463 -5.459,-5.4595 V 30.5317 c 0,-3.0132 2.446,-5.4596 5.459,-5.4596 h 19.412 c 3.013,0 5.459,2.4464 5.459,5.4596 z M 157.683,35.5599 h 9.3545 v 9.3545 h -9.3545 z"
       style="fill:#000000;fill-opacity:1;fill-rule:evenodd;stroke:none"
       transform="matrix(0.35277776,0,0,-0.35277776,114.50502,244.34271)"
       clip-path="url(#clipPath51)" />
    <path
       id="path52"
       d="m 218.081,185.723 c 0,3.013 -2.446,5.46 -5.459,5.46 H 193.21 c -3.013,0 -5.459,-2.447 -5.459,-5.46 v -19.412 c 0,-3.013 2.446,-5.459 5.459,-5.459 h 19.412 c 3.013,0 5.459,2.446 5.459,5.459 z M 198.239,171.34 h 9.3545 v 9.3545 h -9.3545 z"
       style="fill:#000000;fill-opacity:1;fill-rule:evenodd;stroke:none"
       transform="matrix(0.35277776,0,0,-0.35277776,114.50502,244.34271)"
       clip-path="url(#clipPath53)" />
    <path
       id="path54"
       d="m 177.525,185.723 c 0,3.013 -2.447,5.46 -5.46,5.46 h -19.412 c -3.013,0 -5.459,-2.447 -5.459,-5.46 v -19.412 c 0,-3.013 2.446,-5.459 5.459,-5.459 h 19.412 c 3.013,0 5.46,2.446 5.46,5.459 z M 157.682,171.34 h 9.3545 v 9.3545 h -9.3545 z"
       style="fill:#000000;fill-opacity:1;fill-rule:evenodd;stroke:none"
       transform="matrix(0.35277776,0,0,-0.35277776,114.50502,244.34271)"
       clip-path="url(#clipPath55)" />
    <path
       id="path56"
       d="m 136.968,185.723 c 0,3.013 -2.447,5.46 -5.46,5.46 h -19.411 c -3.014,0 -5.46,-2.447 -5.46,-5.46 v -19.412 c 0,-3.013 2.446,-5.459 5.46,-5.459 h 19.411 c 3.013,0 5.46,2.446 5.46,5.459 z M 117.126,171.34 h 9.3545 v 9.3545 h -9.3545 z"
       style="fill:#000000;fill-opacity:1;fill-rule:evenodd;stroke:none"
       transform="matrix(0.35277776,0,0,-0.35277776,114.50502,244.34271)"
       clip-path="url(#clipPath57)" />
    <path
       id="path58"
       d="m 216.679,257.875 -0.731,0.594 -0.818,0.424 -0.85,0.245 -0.832,0.076 H 70.6496 l -0.8314,-0.076 -0.8507,-0.245 -0.8186,-0.424 -0.7304,-0.594 -0.5937,-0.73 -0.4235,-0.819 -0.2449,-0.85 -0.0762,-0.832 v -36.215 l 0.0762,-0.832 0.2449,-0.85 0.4235,-0.819 0.5937,-0.73 0.7304,-0.594 0.8186,-0.424 0.8507,-0.244 0.8314,-0.077 H 213.448 l 0.832,0.077 0.85,0.244 0.818,0.424 0.731,0.594 0.593,0.73 0.425,0.819 0.244,0.85 0.076,0.832 v 36.215 l -0.076,0.832 -0.244,0.85 -0.425,0.819 z M 76.5687,248.725 H 207.529 V 224.348 H 76.5687 Z"
       style="fill:#000000;fill-opacity:1;fill-rule:nonzero;stroke:none"
       transform="matrix(0.35277776,0,0,-0.35277776,114.50502,244.34271)"
       clip-path="url(#clipPath59)" />
    <path
       id="path60"
       d="m 238.627,272.619 -3.229,3.975 -3.975,3.229 -4.454,2.307 -4.627,1.33 -4.523,0.415 H 66.2788 l -4.5238,-0.415 -4.627,-1.33 -4.4527,-2.307 -3.975,-3.229 -3.2289,-3.975 -2.3072,-4.453 -1.3304,-4.627 -0.415,-4.524 V 25.2707 l 0.415,-4.5238 1.3304,-4.627 2.3072,-4.4527 3.2289,-3.975 3.975,-3.229 4.4527,-2.3071 4.627,-1.3304 4.5238,-0.415 H 217.819 l 4.523,0.415 4.627,1.3304 4.454,2.3071 3.975,3.229 3.229,3.975 2.306,4.4527 1.33,4.627 0.415,4.5238 V 259.015 l -0.415,4.524 -1.33,4.627 z M 220.434,11.139 217.819,10.8991 H 66.2788 l -2.6153,0.2399 -2.6752,0.7688 -2.574,1.334 -2.2979,1.8665 -1.8665,2.2979 -1.334,2.574 -0.7688,2.6752 -0.2399,2.6153 V 259.015 l 0.2399,2.615 0.7688,2.676 1.334,2.574 1.8665,2.298 2.2979,1.866 2.574,1.334 2.6752,0.769 2.6153,0.24 H 217.819 l 2.615,-0.24 2.675,-0.769 2.574,-1.334 2.298,-1.866 1.867,-2.298 1.333,-2.574 0.77,-2.676 0.24,-2.615 V 25.2707 l -0.24,-2.6153 -0.77,-2.6752 -1.333,-2.574 -1.867,-2.2979 -2.298,-1.8665 -2.574,-1.334 z"
       style="fill:#000000;fill-opacity:1;fill-rule:nonzero;stroke:none"
       transform="matrix(0.35277776,0,0,-0.35277776,114.50502,244.34271)"
       clip-path="url(#clipPath61)" />
    <path
       id="path62"
       d="m 218.081,30.5317 c 0,-3.0132 -2.446,-5.4596 -5.459,-5.4596 H 193.21 c -3.013,0 -5.459,2.4464 -5.459,5.4596 v 64.6715 c 0,3.0132 2.446,5.4598 5.459,5.4598 h 19.412 c 3.013,0 5.459,-2.4466 5.459,-5.4598 z m -19.842,5.0282 h 9.3545 v 54.6144 h -9.3545 z"
       style="fill:#000000;fill-opacity:1;fill-rule:evenodd;stroke:none"
       transform="matrix(0.35277776,0,0,-0.35277776,114.50502,244.34271)"
       clip-path="url(#clipPath63)" />
  </g>
</svg>
