<?xml version="1.0" encoding="UTF-8" standalone="no"?>
<!-- Created with Inkscape (http://www.inkscape.org/) -->

<svg
   width="100.00004mm"
   height="99.999939mm"
   viewBox="0 0 100.00004 99.999939"
   version="1.1"
   id="svg1"
   xmlns="http://www.w3.org/2000/svg"
   xmlns:svg="http://www.w3.org/2000/svg">
  <defs
     id="defs1">
    <clipPath
       clipPathUnits="userSpaceOnUse"
       id="clipPath5">
      <path
         d="m 0.3163,0.0406 h 283.465 v 283.465 H 0.3163 Z"
         transform="translate(-2.5000001e-6)"
         clip-rule="evenodd"
         id="path5" />
    </clipPath>
  </defs>
  <g
     id="layer1"
     transform="translate(-23.812494,-88.635421)">
    <path
       id="path4"
       d="m 229.061,207.037 -8.987,5.345 62.171,62.171 1.104,1.625 0.432,2.083 -0.432,2.083 -1.104,1.625 -1.625,1.105 -2.083,0.431 -2.083,-0.431 -1.625,-1.105 -64.59,-64.59 -12.639,5.248 -13.423,4.263 -14.099,3.141 -14.639,1.895 -15.013,0.548 c 0,0 -15.201,-0.871 -15.201,-0.871 l -15.188,-2.326 -14.9644,-3.778 -14.536,-5.19 -13.9118,-6.522 -13.1138,-7.737 -12.1677,-8.812 -11.1063,-9.722 -9.966,-10.457 -8.7786,-11.013 -7.5791,-11.394 -1.5077,-2.904 -1.1383,-3.166 -0.7097,-3.355 -0.2413,-3.454 0.2413,-3.454 0.7097,-3.355 1.1383,-3.167 1.5077,-2.904 5.7041,-8.764 6.3013,-8.428 6.8666,-8.034 7.3947,-7.5828 7.8753,-7.0822 8.3044,-6.5377 8.6761,-5.9554 8.9872,-5.346 L 1.8525,8.9929 0.7477,7.367 0.3163,5.2842 0.7477,3.202 1.8525,1.5761 3.4777,0.472 5.5605,0.0406 7.6434,0.472 l 1.6252,1.1041 64.5901,64.5902 12.6382,-5.2471 13.4235,-4.2633 14.0986,-3.1407 14.639,-1.8949 15.013,-0.5482 15.202,0.8706 15.187,2.3257 14.965,3.7785 14.536,5.1901 13.911,6.5214 13.114,7.7378 12.168,8.8114 11.106,9.7218 9.966,10.4576 8.779,11.012 7.579,11.394 1.508,2.904 1.138,3.167 0.71,3.355 0.241,3.454 -0.241,3.454 -0.71,3.355 -1.138,3.166 -1.508,2.904 -5.704,8.765 -6.301,8.428 -6.867,8.034 -7.395,7.583 -7.875,7.082 -8.305,6.537 z m -27.772,-79.577 1.106,5.79 0.542,5.899 -0.033,5.922 -0.603,5.865 -1.154,5.724 -1.669,5.513 -2.139,5.236 -2.551,4.907 -2.905,4.539 -3.192,4.144 23.642,23.642 8.818,-5.023 8.518,-5.644 8.154,-6.237 7.728,-6.793 7.249,-7.304 6.718,-7.761 6.149,-8.162 5.546,-8.498 1.53,-3.51 0.549,-3.936 -0.549,-3.936 -1.53,-3.51 -6.975,-10.501 -8.061,-10.152 -9.131,-9.646 -10.161,-8.9831 -11.12,-8.1636 -11.976,-7.2004 -12.704,-6.1106 -13.277,-4.9182 -13.68,-3.6532 -13.899,-2.3484 -13.936,-1.0386 -13.793,0.2427 -13.483,1.4643 -13.026,2.6011 -12.4424,3.6326 -11.7599,4.5438 21.0333,21.0332 4.144,-3.1919 4.54,-2.9037 4.907,-2.552 5.235,-2.1384 5.513,-1.6693 5.725,-1.1539 5.865,-0.603 5.922,-0.0327 5.898,0.5417 5.791,1.1062 5.604,1.6416 5.348,2.1377 5.033,2.5811 4.669,2.9649 4.273,3.2838 3.854,3.5365 3.537,3.8538 3.284,4.273 2.965,4.67 2.58,5.032 2.138,5.349 z m 1.019,81.989 -21.033,-21.034 -4.144,3.193 -4.539,2.904 -4.907,2.552 -5.236,2.138 -5.513,1.67 -5.725,1.153 -5.864,0.603 -5.923,0.033 -5.898,-0.542 -5.791,-1.106 -5.604,-1.642 -5.348,-2.137 -5.033,-2.581 -4.669,-2.965 -4.273,-3.284 -3.8536,-3.536 -3.5372,-3.855 -3.2838,-4.272 -2.9649,-4.67 -2.5805,-5.032 -2.1377,-5.349 -1.6422,-5.604 -1.1055,-5.79 -0.5424,-5.899 0.0327,-5.922 0.6037,-5.865 1.1539,-5.724 1.6693,-5.513 2.1384,-5.237 2.552,-4.906 2.9036,-4.539 3.192,-4.145 -23.6414,-23.641 -8.8177,5.0221 -8.5188,5.6443 -8.1536,6.2373 -7.7286,6.7933 -7.2481,7.304 -6.7185,7.761 -6.149,8.161 -5.546,8.499 -1.5298,3.51 -0.5495,3.936 0.5495,3.936 1.5298,3.51 6.9755,10.501 8.0603,10.152 9.1316,9.646 10.161,8.982 11.1199,8.164 11.9763,7.201 12.7037,6.11 13.2775,4.919 13.6791,3.653 13.9,2.348 13.936,1.039 13.792,-0.243 13.484,-1.464 13.025,-2.601 12.443,-3.633 z m -21.066,-35.899 4.872,-7.198 2.025,-4.047 1.687,-4.308 1.304,-4.525 0.886,-4.69 0.44,-4.796 -0.019,-4.839 -0.483,-4.814 -0.937,-4.725 -1.369,-4.573 -1.767,-4.364 -2.125,-4.109 -2.436,-3.815 -5.593,-6.653 -6.653,-5.593 -3.815,-2.435 -4.109,-2.1256 -4.364,-1.7675 -4.573,-1.3682 -4.724,-0.9368 -4.815,-0.4834 -4.839,-0.0199 -4.796,0.4406 -4.69,0.8863 -4.524,1.3041 -4.308,1.6864 -4.048,2.026 -7.198,4.872 z m -7.416,7.416 -70.971,-70.97 -4.8716,7.198 -2.0252,4.047 -1.6871,4.308 -1.3041,4.524 -0.8856,4.691 -0.4406,4.796 0.0199,4.839 0.4827,4.814 0.9368,4.724 1.3688,4.573 1.7676,4.365 2.1249,4.109 2.4355,3.815 5.593,6.652 6.653,5.594 3.815,2.435 4.109,2.125 4.364,1.768 4.573,1.368 4.724,0.937 4.815,0.483 4.839,0.02 4.796,-0.44 4.69,-0.887 4.524,-1.304 4.308,-1.686 4.048,-2.026 z"
       style="fill:#000000;fill-opacity:1;fill-rule:nonzero;stroke:none"
       transform="matrix(0.35277776,0,0,-0.35277776,23.70091,188.64968)"
       clip-path="url(#clipPath5)" />
  </g>
</svg>
