<?xml version="1.0" encoding="UTF-8" standalone="no"?>
<!-- Created with Inkscape (http://www.inkscape.org/) -->

<svg
   width="100.00015mm"
   height="99.999901mm"
   viewBox="0 0 100.00015 99.999901"
   version="1.1"
   id="svg1"
   xmlns="http://www.w3.org/2000/svg"
   xmlns:svg="http://www.w3.org/2000/svg">
  <defs
     id="defs1">
    <clipPath
       clipPathUnits="userSpaceOnUse"
       id="clipPath17">
      <path
         d="m 0,0.4107 h 283.465 v 283.465 H 0 Z"
         clip-rule="evenodd"
         id="path17" />
    </clipPath>
    <clipPath
       clipPathUnits="userSpaceOnUse"
       id="clipPath19">
      <path
         d="m 0,0.4107 h 283.465 v 283.465 H 0 Z"
         clip-rule="evenodd"
         id="path19" />
    </clipPath>
    <clipPath
       clipPathUnits="userSpaceOnUse"
       id="clipPath21">
      <path
         d="m 0,0.4107 h 283.465 v 283.465 H 0 Z"
         clip-rule="evenodd"
         id="path21" />
    </clipPath>
    <clipPath
       clipPathUnits="userSpaceOnUse"
       id="clipPath23">
      <path
         d="m 0,0.4107 h 283.465 v 283.465 H 0 Z"
         clip-rule="evenodd"
         id="path23" />
    </clipPath>
    <clipPath
       clipPathUnits="userSpaceOnUse"
       id="clipPath25">
      <path
         d="m 0,0.4107 h 283.465 v 283.465 H 0 Z"
         clip-rule="evenodd"
         id="path25" />
    </clipPath>
    <clipPath
       clipPathUnits="userSpaceOnUse"
       id="clipPath27">
      <path
         d="m 0,0.4107 h 283.465 v 283.465 H 0 Z"
         clip-rule="evenodd"
         id="path27" />
    </clipPath>
    <clipPath
       clipPathUnits="userSpaceOnUse"
       id="clipPath29">
      <path
         d="m 0,0.4107 h 283.465 v 283.465 H 0 Z"
         clip-rule="evenodd"
         id="path29" />
    </clipPath>
  </defs>
  <g
     id="layer1"
     transform="translate(36.512512,-80.168751)">
    <g
       id="g73"
       transform="matrix(0.26458333,0,0,0.26458333,-458.25834,44.670484)"
       style="fill:#ffffff">
      <path
         id="path16"
         d="m 199.963,147.007 -0.066,0.484 -0.115,0.488 -0.166,0.488 -0.217,0.478 -0.269,0.461 -0.319,0.436 -0.363,0.402 -0.403,0.363 -0.435,0.318 -0.461,0.27 -0.478,0.217 -0.488,0.166 -1.443,0.202 h -31.039 l -1.443,-0.202 -0.487,-0.166 -0.479,-0.217 -0.461,-0.27 -0.436,-0.318 -0.402,-0.363 -0.364,-0.402 -0.317,-0.436 -0.269,-0.461 -0.218,-0.478 -0.166,-0.488 -0.114,-0.488 -0.067,-0.484 -0.021,-0.471 0.021,-0.471 0.067,-0.483 0.114,-0.489 0.166,-0.487 0.218,-0.478 0.269,-0.461 0.317,-0.436 0.364,-0.403 0.402,-0.363 0.436,-0.318 0.461,-0.269 0.479,-0.217 0.487,-0.166 1.443,-0.203 h 31.039 l 1.443,0.203 0.488,0.166 0.478,0.217 0.461,0.269 0.435,0.318 0.403,0.363 0.363,0.403 0.319,0.436 0.269,0.461 0.217,0.478 0.166,0.487 0.115,0.489 0.066,0.483 0.022,0.471 -0.022,0.471"
         style="fill:#ffffff;fill-opacity:1;fill-rule:nonzero;stroke:none"
         transform="matrix(1.3333333,0,0,-1.3333333,1594,512.66667)"
         clip-path="url(#clipPath17)" />
      <path
         id="path18"
         d="m 141.874,151.195 -0.479,0.217 -0.487,0.166 -1.443,0.202 h -31.039 l -1.444,-0.202 -0.487,-0.166 -0.478,-0.217 -0.462,-0.27 -0.435,-0.318 -0.403,-0.363 -0.363,-0.402 -0.318,-0.436 -0.269,-0.461 -0.218,-0.478 -0.165,-0.488 -0.115,-0.488 -0.066,-0.484 -0.022,-0.471 0.022,-0.471 0.066,-0.483 0.115,-0.489 0.165,-0.487 0.218,-0.478 0.269,-0.461 0.318,-0.436 0.363,-0.403 0.403,-0.363 0.435,-0.318 0.462,-0.269 0.478,-0.217 0.487,-0.166 1.444,-0.203 h 31.039 l 1.443,0.203 0.487,0.166 0.479,0.217 0.46,0.269 0.436,0.318 0.403,0.363 0.363,0.403 0.318,0.436 0.269,0.461 0.218,0.478 0.165,0.487 0.115,0.489 0.067,0.483 0.021,0.471 -0.021,0.471 -0.067,0.484 -0.115,0.488 -0.165,0.488 -0.218,0.478 -0.269,0.461 -0.318,0.436 -0.363,0.402 -0.403,0.363 -0.436,0.318 -0.46,0.27"
         style="fill:#ffffff;fill-opacity:1;fill-rule:nonzero;stroke:none"
         transform="matrix(1.3333333,0,0,-1.3333333,1594,512.66667)"
         clip-path="url(#clipPath19)" />
      <path
         id="path20"
         d="m 88.8474,144.128 0.2179,0.478 0.2804,0.976 0.0876,0.954 -0.0876,0.955 -0.2804,0.976 -0.2179,0.478 -0.269,0.461 -0.3182,0.436 -0.3631,0.402 -0.4029,0.363 -0.4357,0.318 -0.4605,0.27 -0.4784,0.217 -0.9767,0.281 -0.9538,0.087 H 44.5038 l -0.9539,-0.087 -0.9766,-0.281 -0.4777,-0.217 -0.4613,-0.27 -0.4356,-0.318 -0.403,-0.363 -0.363,-0.402 -0.3182,-0.436 -0.2691,-0.461 -0.2171,-0.478 -0.2812,-0.976 -0.0875,-0.955 0.0875,-0.954 0.2812,-0.976 0.2171,-0.478 0.2691,-0.461 0.3182,-0.436 0.363,-0.403 0.403,-0.363 0.4356,-0.318 0.4613,-0.269 0.4777,-0.217 0.9766,-0.282 0.9539,-0.087 h 39.6853 l 0.9538,0.087 0.9767,0.282 0.4784,0.217 0.4605,0.269 0.4357,0.318 0.4029,0.363 0.3631,0.403 0.3182,0.436 0.269,0.461"
         style="fill:#ffffff;fill-opacity:1;fill-rule:nonzero;stroke:none"
         transform="matrix(1.3333333,0,0,-1.3333333,1594,512.66667)"
         clip-path="url(#clipPath21)" />
      <path
         id="path22"
         d="m 199.616,187.301 -0.486,0.94 -0.682,0.839 -0.838,0.68 -0.939,0.487 -0.976,0.28 -0.955,0.088 h -86.314 l -0.955,-0.088 -0.976,-0.28 -0.94,-0.487 -0.838,-0.68 -0.681,-0.839 -0.487,-0.94 -0.28,-0.976 -0.088,-0.954 0.088,-0.954 0.28,-0.976 0.487,-0.94 0.681,-0.838 0.838,-0.682 0.94,-0.486 0.976,-0.28 0.955,-0.088 h 86.314 l 0.955,0.088 0.976,0.28 0.939,0.486 0.838,0.682 0.682,0.838 0.486,0.94 0.281,0.976 0.088,0.954 -0.088,0.954 -0.281,0.976"
         style="fill:#ffffff;fill-opacity:1;fill-rule:nonzero;stroke:none"
         transform="matrix(1.3333333,0,0,-1.3333333,1594,512.66667)"
         clip-path="url(#clipPath23)" />
      <path
         id="path24"
         d="m 89.0653,187.301 -0.2179,0.479 -0.269,0.461 -0.3182,0.436 -0.3631,0.403 -0.4029,0.363 -0.4357,0.317 -0.4605,0.269 -0.4784,0.218 -0.9767,0.28 -0.9538,0.088 H 44.5038 l -0.9539,-0.088 -0.9766,-0.28 -0.4777,-0.218 -0.4613,-0.269 -0.4356,-0.317 -0.403,-0.363 -0.363,-0.403 -0.3182,-0.436 -0.2691,-0.461 -0.2171,-0.479 -0.2812,-0.976 -0.0875,-0.954 0.0875,-0.954 0.2812,-0.976 0.2171,-0.478 0.2691,-0.462 0.3182,-0.435 0.363,-0.403 0.403,-0.363 0.4356,-0.319 0.4613,-0.268 0.4777,-0.218 0.9766,-0.28 0.9539,-0.088 h 39.6853 l 0.9538,0.088 0.9767,0.28 0.4784,0.218 0.4605,0.268 0.4357,0.319 0.4029,0.363 0.3631,0.403 0.3182,0.435 0.269,0.462 0.2179,0.478 0.2804,0.976 0.0876,0.954 -0.0876,0.954 -0.2804,0.976"
         style="fill:#ffffff;fill-opacity:1;fill-rule:nonzero;stroke:none"
         transform="matrix(1.3333333,0,0,-1.3333333,1594,512.66667)"
         clip-path="url(#clipPath25)" />
      <path
         id="path26"
         d="m 199.13,219.919 0.486,0.939 0.281,0.976 0.088,0.955 -0.088,0.954 -0.281,0.976 -0.486,0.939 -0.682,0.839 -0.838,0.681 -0.939,0.486 -0.976,0.281 -0.955,0.087 H 44.5038 l -0.9539,-0.087 -0.9766,-0.281 -0.939,-0.486 -0.8386,-0.681 -0.6812,-0.839 -0.4862,-0.939 -0.2812,-0.976 -0.0875,-0.954 0.0875,-0.955 0.2812,-0.976 0.4862,-0.939 0.6812,-0.839 0.8386,-0.681 0.939,-0.486 0.9766,-0.281 0.9539,-0.088 H 194.74 l 0.955,0.088 0.976,0.281 0.939,0.486 0.838,0.681 0.682,0.839"
         style="fill:#ffffff;fill-opacity:1;fill-rule:nonzero;stroke:none"
         transform="matrix(1.3333333,0,0,-1.3333333,1594,512.66667)"
         clip-path="url(#clipPath27)" />
      <path
         id="path28"
         d="m 231.963,276.594 -3.975,3.229 -4.452,2.307 -4.628,1.33 -4.523,0.415 H 24.8594 l -4.5231,-0.415 -4.6271,-1.33 -4.4526,-2.307 -3.975,-3.229 -3.229,-3.975 L 1.7455,268.166 0.415,263.539 0,259.015 V 110.31 l 0.415,-4.524 1.3305,-4.627 2.3071,-4.4528 3.229,-3.975 3.975,-3.2296 4.4526,-2.3065 4.6271,-1.3304 4.5231,-0.415 H 45.7795 V 56.6779 l 0.2221,-1.5099 0.6876,-1.4415 1.0891,-1.1674 1.3234,-0.7603 1.4863,-0.3467 1.5932,0.1111 1.4856,0.5851 1.1924,0.9532 30.1649,32.3482 H 97.9499 V 59.2861 l 0.4151,-4.5238 1.3304,-4.6271 2.3076,-4.4526 3.229,-3.975 3.975,-3.2297 4.452,-2.3065 4.627,-1.3304 4.524,-0.415 h 82.765 l 21.385,-31.7039 1.103,-1.1874 1.494,-0.8236 1.679,-0.3004 1.605,0.2285 1.457,0.7075 1.224,1.1881 0.779,1.5184 0.25,1.601 V 34.426 h 22.054 l 4.524,0.415 4.627,1.3304 4.453,2.3072 3.975,3.229 3.229,3.975 2.307,4.4526 1.33,4.6271 0.415,4.5238 V 207.991 l -0.415,4.524 -1.33,4.627 -2.307,4.453 -3.229,3.975 -3.975,3.229 -4.453,2.307 -4.627,1.331 -4.524,0.415 h -19.361 v 26.163 l -0.415,4.524 -1.33,4.627 -2.307,4.453 z M 261.22,45.1544 258.605,44.9145 H 226.063 V 22.8071 L 211.152,44.9145 H 122.81 l -2.615,0.2399 -2.675,0.7688 -2.574,1.3333 -2.298,1.8672 -1.867,2.2978 -1.334,2.5741 -0.769,2.6752 -0.24,2.6153 v 26.1636 h 105.947 l 4.523,0.415 4.628,1.3304 4.452,2.3065 3.975,3.2296 3.229,3.975 2.307,4.4528 1.33,4.627 0.415,4.524 v 112.053 h 19.361 l 2.615,-0.24 2.675,-0.769 2.575,-1.334 2.298,-1.866 1.866,-2.298 1.333,-2.574 0.77,-2.675 0.24,-2.616 V 59.2861 l -0.24,-2.6153 -0.77,-2.6752 -1.333,-2.5741 -1.866,-2.2978 -2.298,-1.8672 -2.575,-1.3333 z M 11.4972,264.306 l 1.3333,2.574 1.8672,2.298 2.2979,1.866 2.574,1.334 2.6752,0.769 2.6146,0.24 H 214.385 l 2.614,-0.24 2.675,-0.769 2.575,-1.334 2.298,-1.866 1.867,-2.298 1.333,-2.574 0.769,-2.676 0.24,-2.615 V 110.31 l -0.24,-2.616 -0.769,-2.675 -1.333,-2.574 -1.867,-2.298 -2.298,-1.8668 -2.575,-1.3333 -2.675,-0.7688 -2.614,-0.2399 H 80.4639 L 56.2679,69.991 V 95.9382 H 24.8594 l -2.6146,0.2399 -2.6752,0.7688 -2.574,1.3333 -2.2979,1.8668 -1.8672,2.298 -1.3333,2.574 -0.7688,2.675 -0.2399,2.616 v 148.705 l 0.2399,2.615 z"
         style="fill:#ffffff;fill-opacity:1;fill-rule:nonzero;stroke:none"
         transform="matrix(1.3333333,0,0,-1.3333333,1594,512.66667)"
         clip-path="url(#clipPath29)" />
    </g>
  </g>
</svg>
