<?xml version="1.0" encoding="UTF-8" standalone="no"?>
<!-- Created with Inkscape (http://www.inkscape.org/) -->

<svg
   width="100.00004mm"
   height="100.00001mm"
   viewBox="0 0 100.00004 100.00001"
   version="1.1"
   id="svg1"
   xmlns="http://www.w3.org/2000/svg"
   xmlns:svg="http://www.w3.org/2000/svg">
  <defs
     id="defs1">
    <clipPath
       clipPathUnits="userSpaceOnUse"
       id="clipPath2">
      <path
         d="m 0.3163,0.0354 h 283.465 v 283.465 H 0.3163 Z"
         clip-rule="evenodd"
         id="path2" />
    </clipPath>
  </defs>
  <g
     id="layer1"
     transform="translate(-40.745834,-90.487505)">
    <path
       id="path1"
       d="m 226.847,282.972 -4.779,-1.517 -4.213,-2.331 -3.492,-2.906 L 7.5979,69.4526 4.6928,65.961 2.3615,61.7482 0.8438,56.9681 0.3163,51.8748 0.8438,46.78 2.3615,42.0007 4.6928,37.7879 7.5979,34.2963 34.5771,7.317 l 3.4917,-2.9058 4.2127,-2.3306 4.7801,-1.5177 5.0941,-0.5275 5.094,0.5275 4.7794,1.5177 4.2127,2.3306 3.4924,2.9058 206.7648,206.765 2.905,3.492 2.332,4.213 1.517,4.78 0.528,5.094 -0.528,5.094 -1.517,4.78 -2.332,4.213 -2.905,3.491 -26.979,26.979 -3.492,2.906 -4.212,2.331 -4.78,1.517 -5.094,0.528 z m -67.221,-76.324 11.344,11.344 13.93,-13.93 1.625,-1.105 2.083,-0.431 2.083,0.431 1.625,1.105 1.105,1.625 0.431,2.083 -0.431,2.083 -1.105,1.625 -13.93,13.93 11.344,11.345 7.917,-7.918 1.625,-1.104 2.083,-0.432 2.083,0.432 1.625,1.104 1.105,1.625 0.432,2.083 -0.432,2.083 -1.105,1.625 -7.917,7.918 11.344,11.344 13.931,-13.931 1.625,-1.104 2.083,-0.432 2.083,0.432 1.625,1.104 1.105,1.626 0.431,2.083 -0.431,2.082 c 0,0 -1.105,1.626 -1.105,1.626 l -13.931,13.931 5.874,5.872 2.019,1.68 2.435,1.347 2.763,0.878 2.945,0.305 2.944,-0.305 2.764,-0.878 2.435,-1.347 2.019,-1.68 26.979,-26.979 1.679,-2.019 1.348,-2.435 0.878,-2.763 0.304,-2.945 -0.304,-2.945 -0.878,-2.764 -1.348,-2.435 -1.679,-2.019 -206.7649,-206.7649 -2.0188,-1.68 -2.436,-1.3475 -2.7627,-0.877 -2.9449,-0.3047 -2.945,0.3047 -2.7634,0.877 -2.4353,1.3475 -2.0188,1.68 -26.9792,26.9793 -1.6793,2.0188 -1.3475,2.4352 -0.8778,2.7634 -0.3046,2.945 0.3046,2.9442 0.8778,2.7634 1.3475,2.4353 1.6793,2.0188 5.8728,5.8728 13.9309,-13.9303 1.6252,-1.1048 2.0829,-0.4314 2.0829,0.4314 1.6251,1.1048 1.1048,1.6252 0.4314,2.0829 -0.4314,2.0829 -1.1048,1.6251 -13.9309,13.931 11.3441,11.3441 7.9179,-7.9179 1.6252,-1.1041 2.0829,-0.4314 2.0828,0.4314 1.6252,1.1041 1.1048,1.6258 0.4314,2.0829 -0.4314,2.0822 -1.1048,1.6259 -7.9172,7.9172 11.3441,11.3437 13.9302,-13.9306 1.6252,-1.1041 2.0829,-0.4313 2.0829,0.4313 1.6251,1.1041 1.1048,1.6259 0.4314,2.0829 -0.4314,2.0822 -1.1048,1.6258 -13.9302,13.9308 11.3441,11.344 7.9172,-7.918 1.6252,-1.104 2.0829,-0.432 2.0829,0.432 1.6251,1.104 1.1048,1.626 0.4314,2.082 -0.4314,2.083 -1.1048,1.625 -7.9172,7.918 11.3441,11.344 13.9307,-13.93 1.625,-1.105 2.083,-0.432 2.082,0.432 1.626,1.105 1.104,1.625 0.432,2.083 -0.432,2.082 -1.104,1.626 -13.931,13.93 11.344,11.344 7.918,-7.917 1.626,-1.105 2.082,-0.431 2.083,0.431 1.626,1.105 1.104,1.625 0.431,2.083 -0.431,2.083 -1.104,1.625 -7.918,7.918 11.344,11.344 13.931,-13.931 1.625,-1.105 2.083,-0.431 2.083,0.431 1.625,1.105 1.105,1.625 0.431,2.083 -0.431,2.083 -1.105,1.626 -13.931,13.93 11.345,11.344 7.917,-7.917 1.625,-1.105 2.083,-0.431 2.083,0.431 1.625,1.105 1.105,1.625 0.431,2.083 -0.431,2.083 -1.105,1.625 z"
       style="fill:#000000;fill-opacity:1;fill-rule:nonzero;stroke:none"
       transform="matrix(0.35277776,0,0,-0.35277776,40.63425,190.5)"
       clip-path="url(#clipPath2)" />
  </g>
</svg>
