<?xml version="1.0" encoding="UTF-8" standalone="no"?>
<!-- Created with Inkscape (http://www.inkscape.org/) -->

<svg
   width="99.999947mm"
   height="99.999939mm"
   viewBox="0 0 99.999947 99.999939"
   version="1.1"
   id="svg1"
   xmlns="http://www.w3.org/2000/svg"
   xmlns:svg="http://www.w3.org/2000/svg">
  <defs
     id="defs1" />
  <g
     id="layer1"
     transform="translate(-72.760412,-161.39583)">
    <path
       id="path64"
       d="m 92.147883,197.16185 -0.37398,0.40993 -0.235832,0.50236 -0.07609,0.52564 v 42.24425 l 0.0309,0.33655 0.09895,0.34431 0.171768,0.33151 0.240347,0.29587 0.295875,0.2401 0.331258,0.17177 0.344311,0.099 0.336797,0.0309 h 42.244183 l 0.52564,-0.0761 0.50236,-0.23558 0.40993,-0.37398 0.27164,-0.45632 0.13052,-0.51484 -0.0254,-0.55429 -0.18873,-0.5219 -0.3175,-0.42545 -42.244402,-42.24422 -0.42545,-0.3175 -0.521899,-0.18873 -0.554285,-0.0254 -0.514596,0.13052 z m 38.941977,41.83197 H 95.162404 V 203.0663 Z"
       style="fill:#ffffff;fill-opacity:1;fill-rule:nonzero;stroke:none;stroke-width:0.352778" />
    <path
       id="path65"
       d="m 86.795397,163.14244 -1.079464,-0.69251 -1.195952,-0.53798 -1.277867,-0.35631 -1.316778,-0.15981 -1.310993,0.0392 -1.262027,0.22684 -1.177608,0.39264 -1.110332,0.55492 -1.053077,0.73237 -0.954617,0.89923 -0.818233,1.04422 -0.65151,1.15535 -0.465349,1.22625 -0.273508,1.25271 -0.08767,1.23825 v 82.46713 l 0.146438,1.59604 0.469371,1.63248 0.813753,1.57092 1.13919,1.4024 1.402432,1.13922 1.57092,0.81397 1.632726,0.4694 1.59579,0.1464 h 82.467698 l 1.2379,-0.0879 1.25306,-0.27351 1.22626,-0.46539 1.15535,-0.65147 1.04422,-0.81823 0.89887,-0.95462 0.73237,-1.05308 0.55492,-1.11033 0.39264,-1.17736 0.22684,-1.26227 0.0392,-1.311 -0.15946,-1.31678 -0.35666,-1.27758 -0.53763,-1.19623 -0.69286,-1.07943 -0.8135,-0.93755 -82.46731,-82.46709 z m -2.703124,37.41525 -0.681108,-0.12982 h -6.950569 v -5.41302 h 3.950335 l 0.681108,-0.12982 0.62738,-0.41205 0.411868,-0.62724 0.129858,-0.68086 -0.129858,-0.68121 -0.411868,-0.62724 -0.62738,-0.41205 -0.681108,-0.12982 h -3.950335 v -5.41302 h 6.950569 l 0.681108,-0.12982 0.627345,-0.41205 0.411903,-0.62724 0.129857,-0.68086 -0.129857,-0.68121 -0.411903,-0.62724 -0.627345,-0.41204 -0.681108,-0.12983 h -6.950569 v -5.41302 h 3.950335 l 0.681108,-0.12982 0.62738,-0.41204 0.411868,-0.62724 0.129858,-0.68086 -0.129858,-0.68122 -0.411868,-0.62724 -0.62738,-0.41204 -0.681108,-0.12982 h -3.950335 v -2.93018 l 0.208951,-1.44039 0.645724,-1.37654 1.024925,-1.12359 1.250492,-0.74401 1.41044,-0.35807 1.519203,0.0695 1.430019,0.51717 1.166107,0.87065 82.467203,82.46703 0.87065,1.16607 0.51717,1.43002 0.0695,1.5192 -0.35807,1.41044 -0.74401,1.25074 -1.12359,1.02492 -1.37654,0.64573 -1.44004,0.2087 h -2.93053 v -3.95033 l -0.12982,-0.68111 -0.41204,-0.6271 -0.62724,-0.41215 -0.68122,-0.12986 -0.68086,0.12986 -0.62724,0.41215 -0.41204,0.6271 -0.12982,0.68111 v 3.95033 h -5.41302 v -6.95053 l -0.13018,-0.68111 -0.41169,-0.62713 -0.62724,-0.41215 -0.68086,-0.12982 c 0,0 -0.68121,0.12982 -0.68121,0.12982 l -0.62724,0.41215 -0.41205,0.62713 -0.12982,0.68111 v 6.95053 h -5.41302 v -3.95033 l -0.12982,-0.68111 -0.41205,-0.6271 -0.62724,-0.41215 -0.68121,-0.12986 -0.68086,0.12986 -0.62724,0.41215 -0.41205,0.6271 -0.13017,0.68111 v 3.95033 h -5.41267 v -6.95053 l -0.13017,-0.68111 -0.4117,-0.62713 -0.62724,-0.41215 -0.68121,-0.12982 -0.68086,0.12982 -0.62724,0.41215 -0.41204,0.62713 -0.12983,0.68111 v 6.95053 h -5.41302 v -3.95033 l -0.12982,-0.68111 -0.4124,-0.6271 -0.62688,-0.41215 -0.68122,-0.12986 -0.68086,0.12986 c 0,0 -0.62724,0.41215 -0.62724,0.41215 l -0.41204,0.6271 -0.13018,0.68111 v 3.95033 h -5.41267 v -6.95053 l -0.13017,-0.68111 -0.41169,-0.62713 -0.62724,-0.41215 -0.68121,-0.12982 -0.68087,0.12982 -0.62723,0.41215 -0.41205,0.62713 -0.12982,0.68111 v 6.95053 h -5.41313 v -3.95033 l -0.12982,-0.68111 -0.4119,-0.6271 -0.62735,-0.41215 -0.68114,-0.12986 -0.68086,0.12986 -0.62735,0.41215 -0.4119,0.6271 -0.12982,0.68111 v 3.95033 h -5.413026 v -6.95053 l -0.130105,-0.68111 -0.411868,-0.62713 -0.627133,-0.41215 -0.681108,-0.12982 -0.681143,0.12982 -0.627098,0.41215 -0.41215,0.62713 -0.129822,0.68111 v 6.95053 h -5.413022 v -3.95033 l -0.129858,-0.68111 -0.411868,-0.6271 -0.62738,-0.41215 -0.681108,-0.12986 -0.680861,0.12986 -0.62738,0.41215 -0.411868,0.6271 -0.129857,0.68111 v 3.95033 h -2.930419 l -0.922443,-0.0847 -0.943822,-0.27122 -0.908156,-0.47068 -0.810965,-0.65849 -0.658531,-0.81072 -0.470393,-0.90816 -0.271498,-0.94378 -0.08463,-0.92273 v -2.93017 h 3.950335 l 0.681108,-0.13007 0.62738,-0.4119 0.411868,-0.6271 0.129858,-0.68111 -0.129858,-0.68114 -0.411868,-0.6271 -0.62738,-0.41215 -0.681108,-0.12982 h -3.950335 v -5.41302 h 6.950569 l 0.681108,-0.12983 0.627345,-0.4119 0.411903,-0.62734 0.129857,-0.68115 -0.129857,-0.68086 -0.411903,-0.62734 -0.627345,-0.41191 -0.681108,-0.12982 h -6.950569 v -5.41302 h 3.950335 l 0.681108,-0.1301 0.62738,-0.41187 0.411868,-0.62714 0.129858,-0.6811 -0.129858,-0.68111 -0.411868,-0.6271 -0.62738,-0.41215 -0.681108,-0.12986 h -3.950335 v -5.41295 h 6.950569 l 0.681108,-0.12982 0.627345,-0.41204 0.411903,-0.62724 0.129857,-0.68122 -0.129857,-0.68086 -0.411903,-0.62724 -0.627345,-0.41204 -0.681108,-0.12982 h -6.950569 v -5.41303 h 3.950335 l 0.681108,-0.12982 0.62738,-0.41204 0.411868,-0.62724 0.129858,-0.68086 -0.129858,-0.68122 c 0,0 -0.411868,-0.62724 -0.411868,-0.62724 l -0.62738,-0.41204 -0.681108,-0.12982 h -3.950335 v -5.41302 h 6.950569 l 0.681108,-0.12983 0.627345,-0.41204 0.411903,-0.62724 0.129857,-0.68121 -0.129857,-0.68086 -0.411903,-0.62724 z"
       style="fill:#ffffff;fill-opacity:1;fill-rule:nonzero;stroke:none;stroke-width:0.352778" />
  </g>
</svg>
