<?xml version="1.0" encoding="UTF-8" standalone="no"?>
<!-- Created with Inkscape (http://www.inkscape.org/) -->

<svg
   width="100.00014mm"
   height="100mm"
   viewBox="0 0 100.00014 100"
   version="1.1"
   id="svg1"
   xmlns="http://www.w3.org/2000/svg"
   xmlns:svg="http://www.w3.org/2000/svg">
  <defs
     id="defs1" />
  <g
     id="layer1"
     transform="translate(-39.422912,-105.83336)">
    <path
       id="path3"
       d="m 119.32813,106.0196 -1.68663,0.53517 -1.4866,0.82267 -1.23226,1.02518 -63.11617,63.11589 -12.255888,31.59784 -0.12767,0.549 0.03535,0.58716 0.204435,0.5515 0.338561,0.45071 0.450956,0.33859 0.551285,0.20465 0.587129,0.0354 0.549028,-0.12792 31.597845,-12.25592 63.115929,-63.11575 1.02517,-1.23261 0.82268,-1.48625 0.53516,-1.68663 0.18662,-1.79775 -0.18662,-1.79776 -0.53516,-1.68628 -0.82268,-1.4866 -1.02517,-1.23226 -9.525,-9.52499 -1.23226,-1.02518 -1.48625,-0.82267 -1.68698,-0.53517 -1.7974,-0.18626 z m -74.931722,94.84 2.044065,-5.26994 1.01025,0.56078 0.90491,0.74993 0.750147,0.90516 0.56081,1.01 z m 20.003557,-17.30615 0.893869,0.25707 0.873795,0.08 h 4.708913 v 6.69805 l -17.75661,6.88739 -0.908156,-1.68544 -1.238497,-1.50784 -1.507596,-1.23846 -1.685642,-0.90819 6.887386,-17.75658 h 6.698015 v 4.70888 l 0.08026,0.87383 0.256857,0.89387 0.445664,0.86025 0.623747,0.76771 0.767997,0.62375 z m 10.406909,-0.61299 0.650522,-0.97387 42.909064,-42.909 2.26378,2.26413 -46.051789,46.05175 v -3.28454 z m -8.639245,-2.75159 -0.405024,-0.0772 -0.372957,-0.24503 -0.245039,-0.37321 -0.07751,-0.40506 v -4.58925 l 0.228495,-1.14868 0.650839,-0.97363 42.869627,-42.86959 6.93314,6.93314 -42.869978,42.86949 -0.973631,0.65059 -1.14868,0.22846 z m -2.878243,-10.39022 -0.973632,0.65052 -1.148679,0.22863 h -3.284573 l 46.052178,-46.05199 2.26377,2.26377 z m 43.262544,-47.79045 2.68852,-2.68817 16.69592,16.69556 -2.68852,2.68852 z m 13.53468,-12.36557 1.03893,-0.1076 1.03893,0.1076 0.97507,0.30939 0.85937,0.47554 0.71191,0.59267 9.525,9.525 0.59266,0.71225 0.47555,0.85937 0.30938,0.97473 0.1076,1.03893 -0.1076,1.03893 -0.30938,0.97507 -0.47555,0.85902 -0.59266,0.71226 -5.6822,5.68254 -16.69556,-16.69591 5.68184,-5.68219 0.71261,-0.59267 0.85902,-0.47554 z"
       style="fill:#000000;fill-opacity:1;fill-rule:nonzero;stroke:none;stroke-width:0.352778" />
  </g>
</svg>
