<?xml version="1.0" encoding="UTF-8" standalone="no"?>
<!-- Created with Inkscape (http://www.inkscape.org/) -->

<svg
   width="99.999893mm"
   height="99.999939mm"
   viewBox="0 0 99.999893 99.999939"
   version="1.1"
   id="svg1"
   xmlns="http://www.w3.org/2000/svg"
   xmlns:svg="http://www.w3.org/2000/svg">
  <defs
     id="defs1">
    <clipPath
       clipPathUnits="userSpaceOnUse"
       id="clipPath7">
      <path
         d="m 0.1927,0.0406 h 283.465 v 283.465 H 0.1927 Z"
         transform="translate(2.5000001e-5)"
         clip-rule="evenodd"
         id="path7" />
    </clipPath>
    <clipPath
       clipPathUnits="userSpaceOnUse"
       id="clipPath9">
      <path
         d="m 0.1927,0.0406 h 283.465 v 283.465 H 0.1927 Z"
         transform="translate(2.5000001e-5)"
         clip-rule="evenodd"
         id="path9" />
    </clipPath>
    <clipPath
       clipPathUnits="userSpaceOnUse"
       id="clipPath11">
      <path
         d="m 0.1927,0.0406 h 283.465 v 283.465 H 0.1927 Z"
         transform="translate(2.5000001e-5)"
         clip-rule="evenodd"
         id="path11" />
    </clipPath>
    <clipPath
       clipPathUnits="userSpaceOnUse"
       id="clipPath13">
      <path
         d="m 0.1927,0.0406 h 283.465 v 283.465 H 0.1927 Z"
         transform="translate(2.5000001e-5)"
         clip-rule="evenodd"
         id="path13" />
    </clipPath>
    <clipPath
       clipPathUnits="userSpaceOnUse"
       id="clipPath15">
      <path
         d="m 0.1927,0.0406 h 283.465 v 283.465 H 0.1927 Z"
         transform="translate(2.5000001e-5)"
         clip-rule="evenodd"
         id="path15" />
    </clipPath>
  </defs>
  <g
     id="layer1"
     transform="translate(43.391686,-89.164581)">
    <path
       id="path6"
       d="m 166.015,69.5242 -0.318,0.4356 -0.363,0.4029 -0.403,0.3631 -0.436,0.3182 -0.461,0.2691 -0.478,0.2178 -0.487,0.1651 -1.443,0.2029 h -9.638 l -1.443,-0.2029 -0.487,-0.1651 -0.479,-0.2178 -0.46,-0.2691 -0.437,-0.3182 -0.403,-0.3631 -0.363,-0.4029 -0.317,-0.4356 -0.269,-0.4613 -0.218,-0.4777 -0.166,-0.4876 -0.115,-0.489 -0.066,-0.4827 -0.021,-0.4712 0.021,-0.4713 0.066,-0.4833 0.115,-0.4884 0.166,-0.4876 0.218,-0.4784 0.269,-0.4605 0.317,-0.4357 0.363,-0.4029 0.403,-0.363 0.437,-0.3182 0.46,-0.2691 0.479,-0.2178 0.487,-0.1659 1.443,-0.2022 h 9.638 l 1.443,0.2022 0.487,0.1659 0.478,0.2178 0.461,0.2691 0.436,0.3182 0.403,0.363 0.363,0.4029 0.318,0.4357 0.269,0.4605 0.217,0.4784 0.166,0.4876 0.115,0.4884 0.067,0.4833 0.02,0.4713 -0.02,0.4712 -0.067,0.4827 -0.115,0.489 -0.166,0.4876 -0.217,0.4777 -0.269,0.4613"
       style="fill:#ffffff;fill-opacity:1;fill-rule:nonzero;stroke:none"
       transform="matrix(0.35277776,0,0,-0.35277776,-43.459675,189.17884)"
       clip-path="url(#clipPath7)" />
    <path
       id="path8"
       d="m 195.82,69.5242 -0.318,0.4356 -0.363,0.4029 -0.403,0.3631 -0.435,0.3182 -0.462,0.2691 -0.478,0.2178 -0.487,0.1651 -1.443,0.2029 h -9.638 l -1.443,-0.2029 -0.487,-0.1651 -0.479,-0.2178 -0.46,-0.2691 -0.437,-0.3182 -0.402,-0.3631 -0.363,-0.4029 -0.318,-0.4356 -0.269,-0.4613 -0.218,-0.4777 -0.166,-0.4876 -0.114,-0.489 -0.067,-0.4827 -0.021,-0.4712 0.021,-0.4713 0.067,-0.4833 0.114,-0.4884 0.166,-0.4876 0.218,-0.4784 0.269,-0.4605 0.318,-0.4357 0.363,-0.4029 0.402,-0.363 0.437,-0.3182 0.46,-0.2691 0.479,-0.2178 0.487,-0.1659 1.443,-0.2022 h 9.638 l 1.443,0.2022 0.487,0.1659 0.478,0.2178 0.462,0.2691 0.435,0.3182 0.403,0.363 0.363,0.4029 0.318,0.4357 0.269,0.4605 0.218,0.4784 0.166,0.4876 0.114,0.4884 0.067,0.4833 0.021,0.4713 -0.021,0.4712 -0.067,0.4827 -0.114,0.489 -0.166,0.4876 -0.218,0.4777 -0.269,0.4613"
       style="fill:#ffffff;fill-opacity:1;fill-rule:nonzero;stroke:none"
       transform="matrix(0.35277776,0,0,-0.35277776,-43.459675,189.17884)"
       clip-path="url(#clipPath9)" />
    <path
       id="path10"
       d="m 136.251,69.5242 -0.318,0.4356 c 0,0 -0.363,0.4029 -0.363,0.4029 l -0.402,0.3631 -0.437,0.3182 -0.461,0.2691 c 0,0 -0.478,0.2178 -0.478,0.2178 l -0.487,0.1651 -1.443,0.2029 h -9.638 l -1.443,-0.2029 -0.488,-0.1651 -0.477,-0.2178 -0.461,-0.2691 -0.436,-0.3182 -0.403,-0.3631 -0.363,-0.4029 -0.318,-0.4356 -0.269,-0.4613 -0.217,-0.4777 -0.166,-0.4876 -0.116,-0.489 -0.066,-0.4827 -0.021,-0.4712 0.021,-0.4713 0.066,-0.4833 0.116,-0.4884 0.166,-0.4876 0.217,-0.4784 0.269,-0.4605 0.318,-0.4357 0.363,-0.4029 0.403,-0.363 0.436,-0.3182 0.461,-0.2691 0.477,-0.2178 0.488,-0.1659 1.443,-0.2022 h 9.638 l 1.443,0.2022 0.487,0.1659 0.478,0.2178 0.461,0.2691 0.437,0.3182 0.402,0.363 0.363,0.4029 0.318,0.4357 0.269,0.4605 0.218,0.4784 0.165,0.4876 0.116,0.4884 0.066,0.4833 0.021,0.4713 -0.021,0.4712 -0.066,0.4827 -0.116,0.489 -0.165,0.4876 -0.218,0.4777 -0.269,0.4613"
       style="fill:#ffffff;fill-opacity:1;fill-rule:nonzero;stroke:none"
       transform="matrix(0.35277776,0,0,-0.35277776,-43.459675,189.17884)"
       clip-path="url(#clipPath11)" />
    <path
       id="path12"
       d="m 105.404,70.7258 -0.436,0.3182 -0.461,0.2691 -0.479,0.2178 -0.487,0.1651 -1.443,0.2029 h -9.6381 l -1.4422,-0.2029 -0.4876,-0.1651 -0.4784,-0.2178 -0.4613,-0.2691 -0.4356,-0.3182 -0.4029,-0.3631 -0.3631,-0.4029 -0.3175,-0.4356 -0.2691,-0.4613 -0.2178,-0.4777 -0.1658,-0.4876 -0.1147,-0.489 -0.0669,-0.4827 -0.0206,-0.4712 0.0206,-0.4713 0.0669,-0.4833 0.1147,-0.4884 0.1658,-0.4876 0.2178,-0.4784 0.2691,-0.4605 0.3175,-0.4357 0.3631,-0.4029 0.4029,-0.363 0.4356,-0.3182 0.4613,-0.2691 0.4784,-0.2178 0.4876,-0.1659 1.4422,-0.2022 h 9.6381 l 1.443,0.2022 0.487,0.1659 0.479,0.2178 0.461,0.2691 0.436,0.3182 0.403,0.363 0.363,0.4029 0.317,0.4357 0.269,0.4605 0.218,0.4784 0.166,0.4876 0.114,0.4884 0.067,0.4833 0.021,0.4713 -0.021,0.4712 -0.067,0.4827 -0.114,0.489 -0.166,0.4876 -0.218,0.4777 -0.269,0.4613 -0.317,0.4356 -0.363,0.4029 -0.403,0.3631"
       style="fill:#ffffff;fill-opacity:1;fill-rule:nonzero;stroke:none"
       transform="matrix(0.35277776,0,0,-0.35277776,-43.459675,189.17884)"
       clip-path="url(#clipPath13)" />
    <path
       id="path14"
       d="m 165.078,267.699 -1.537,3.226 -2.06,3.068 -2.554,2.789 -2.985,2.395 -3.317,1.908 -3.528,1.363 -3.608,0.801 -3.564,0.256 -3.564,-0.256 -3.608,-0.801 -3.528,-1.363 -3.317,-1.908 -2.985,-2.395 -2.554,-2.789 -2.06,-3.068 -1.537,-3.226 -5.868,-1.162 -5.901,-1.671 -5.87,-2.2 -5.7701,-2.736 -5.5995,-3.27 -5.3553,-3.786 -5.0428,-4.274 -4.6648,-4.72 -4.2298,-5.112 -3.7479,-5.444 -3.2326,-5.707 -2.6936,-5.898 -2.1463,-6.015 -1.6031,-6.06 -1.0735,-6.039 -0.5687,-5.955 -5.2037,-2.336 -2.389,-1.753 -2.132,-2.103 -1.8045,-2.39 -1.4245,-2.599 -1.6315,-5.465 -0.0662,-5.704 0.5872,-2.905 1.013,-2.818 1.4109,-2.642 1.7597,-2.384 4.2747,-3.777 V 147.442 H 36.6177 l -1.9306,-0.368 -1.7775,-1.168 -1.1681,-1.778 -0.3681,-1.93 v -40.536 l 0.3681,-1.9295 1.1681,-1.7782 1.7775,-1.1675 1.9306,-0.368 H 49.7991 V 68.072 L 50.5729,57.8376 1.7282,8.9929 0.6241,7.367 0.1927,5.2842 0.6241,3.202 1.7282,1.5761 3.3541,0.472 5.4362,0.0406 7.5191,0.472 l 1.6252,1.1041 44.3572,44.3572 3.98,-9.2663 2.5705,-4.511 2.9542,-4.3658 3.3272,-4.175 3.6803,-3.9366 4.007,-3.6547 4.2989,-3.3343 4.5523,-2.9798 4.7595,-2.5997 4.9203,-2.199 5.03,-1.7874 5.0893,-1.3732 5.102,-0.9624 10.057,-0.7475 h 48.19 l 6.112,0.2748 6.267,0.8606 6.34,1.4907 6.323,2.1505 6.204,2.8232 5.981,3.4895 5.653,4.1252 5.225,4.7111 4.711,5.2257 4.126,5.6521 3.489,5.9818 2.823,6.2038 2.151,6.3227 1.49,6.3405 0.861,6.2665 0.275,6.1127 c 0,0 0,28.3468 0,28.3468 h 13.181 l 1.93,0.368 1.778,1.1675 1.168,1.7782 0.368,1.9295 v 40.536 l -0.368,1.93 -1.168,1.778 -1.778,1.168 -1.93,0.368 h -13.181 v 13.332 l 4.275,3.777 1.759,2.384 1.411,2.642 1.012,2.818 0.588,2.905 -0.066,5.704 -1.631,5.465 -1.425,2.599 -1.804,2.39 -2.132,2.103 -2.389,1.753 -5.204,2.336 c 0,0 -1.209,9.88 -1.209,9.88 0,0 -2.504,9.633 -2.504,9.633 l 57.39,57.39 1.104,1.625 0.431,2.083 -0.431,2.083 -1.104,1.625 c 0,0 -1.626,1.105 -1.626,1.105 0,0 -2.082,0.431 -2.082,0.431 l -2.084,-0.431 -1.625,-1.105 -54.348,-54.347 -4.362,7.456 -5.307,7.046 -6.188,6.462 -6.966,5.718 -7.6,4.842 -8.066,3.873 -8.347,2.854 c 0,0 -8.443,1.826 -8.443,1.826 z m 38.058,-129.344 -2.175,1.767 -2.437,1.263 -2.532,0.728 -2.476,0.227 h -43.608 l 15.024,15.024 h 57.78 V 68.072 l -0.229,-5.0941 -0.717,-5.2221 -1.242,-5.2834 -1.792,-5.2692 -2.353,-5.1702 -2.908,-4.9837 -3.438,-4.7111 -3.925,-4.3544 -4.355,-3.9259 -4.711,-3.4375 -4.984,-2.908 -5.17,-2.3526 -5.269,-1.7925 -5.283,-1.2422 -5.222,-0.7168 c 0,0 -5.094,-0.2292 -5.094,-0.2292 h -48.19 l -8.985,0.7168 -9.1299,2.2552 -4.496,1.7319 -4.3801,2.1334 -4.2113,2.5221 -3.9928,2.888 c 0,0 -3.7266,3.224 -3.7266,3.224 l -3.4197,3.5216 -3.081,3.775 -2.7164,3.9799 -4.2875,8.3686 -2.757,8.5829 26.3792,26.3792 1.3084,-0.0626 H 193.516 l 2.476,0.2271 2.532,0.7282 2.437,1.2621 2.175,1.7675 c 0,0 1.768,2.1755 1.768,2.1755 0,0 1.263,2.4374 1.263,2.4374 l 0.727,2.532 0.228,2.4766 v 33.7315 l -0.228,2.476 -0.727,2.533 -1.263,2.437 z M 79.5027,86.7667 61.1375,68.4016 V 157.364 H 150.1 L 135.076,142.34 H 90.3343 l -2.4758,-0.227 -2.5328,-0.728 -2.4367,-1.263 -2.1761,-1.767 -1.7669,-2.176 -1.2628,-2.437 -0.7282,-2.533 -0.2271,-2.476 V 95.0015 l 0.7126,-4.3452 z m 116.2173,6.0295 -1.057,-0.6941 -1.147,-0.2193 H 99.4511 L 139.42,131.851 h 54.096 l 1.147,-0.218 1.057,-0.695 0.695,-1.057 0.219,-1.148 V 95.0015 l -0.219,-1.1482 z m -108.4659,1.7219 -0.0377,0.4834 v 33.7315 l 0.2185,1.148 0.6948,1.057 1.0564,0.695 1.1482,0.218 H 124.587 Z M 41.8619,106.907 v 30.047 h 7.9372 v -30.047 z m 200.1261,30.047 v -30.047 h -7.937 v 30.047 z m -61.274,51.024 -20.127,-20.127 H 61.1375 l -3.7045,0.707 -1.8024,0.934 -1.6088,1.307 -1.3069,1.609 -0.934,1.802 -0.7061,3.705 0.7061,3.704 0.934,1.802 1.3069,1.61 1.6088,1.307 1.8024,0.933 3.7045,0.707 z m 49.114,-2.947 1.307,-1.61 0.934,-1.802 0.706,-3.704 -0.706,-3.705 -0.934,-1.802 -1.307,-1.609 -1.609,-1.307 -1.802,-0.934 -3.705,-0.707 H 175.42 l 20.126,20.127 h 27.166 l 3.705,-0.707 1.802,-0.933 z m -12.553,18.58 0.605,-5.145 h -11.846 l 10.225,10.225 z m -72.735,69.167 2.675,-0.77 2.574,-1.333 2.298,-1.868 1.867,-2.297 1.334,-2.574 0.768,-2.676 0.24,-2.614 V 228.23 h 10.489 v 28.495 l 7.177,-1.952 7.049,-2.83 6.759,-3.696 6.315,-4.508 5.729,-5.234 5.028,-5.837 4.241,-6.301 3.41,-6.61 -21.292,-21.291 H 65.9696 l 1.5177,9.788 1.3632,4.925 1.7811,4.881 2.1989,4.785 2.6097,4.636 3.004,4.436 3.3735,4.186 3.7095,3.89 4.0056,3.557 4.2561,3.192 4.4577,2.805 4.6064,2.402 c 0,0 4.705,1.994 4.705,1.994 l 9.507,2.782 V 228.23 h 10.488 v 30.416 l 0.24,2.614 0.769,2.676 1.334,2.574 c 0,0 1.867,2.297 1.867,2.297 l 2.298,1.868 2.574,1.333 2.675,0.77 2.615,0.239 z"
       style="fill:#ffffff;fill-opacity:1;fill-rule:nonzero;stroke:none"
       transform="matrix(0.35277776,0,0,-0.35277776,-43.459675,189.17884)"
       clip-path="url(#clipPath15)" />
  </g>
</svg>
